<svg class="svg-icon" style="width: 1em; height: 1em;vertical-align: middle;fill: currentColor;overflow: hidden;" viewBox="0 0 1024 1024" version="1.1" xmlns="http://www.w3.org/2000/svg"><path d="M511.996 81.862C274.45 81.862 81.862 274.444 81.862 512s192.586 430.142 430.134 430.142c237.566 0 430.148-192.586 430.148-430.142S749.562 81.862 511.996 81.862z" fill="#EDF3FC" /><path d="M872.62 151.378C776.292 55.05 648.22 2 511.996 2c-136.222 0-264.292 53.05-360.62 149.378S2 375.776 2 512c0 136.226 53.05 264.298 149.376 360.624C247.704 968.95 375.772 1022 511.996 1022c136.226 0 264.296-53.048 360.624-149.376C968.95 776.298 1022 648.226 1022 512c0-136.224-53.05-264.294-149.38-360.622zM511.996 1005.66C239.792 1005.66 18.342 784.204 18.342 512S239.792 18.34 511.996 18.34c272.208 0 493.662 221.454 493.662 493.66S784.204 1005.66 511.996 1005.66z" fill="#EDF3FC" /><path d="M575.62 294.994a36.108 36.108 0 0 1-26.234-26.232l-0.552-2.206-0.548 2.206a36.114 36.114 0 0 1-26.236 26.232l-2.206 0.556 2.206 0.552a36.1 36.1 0 0 1 26.236 26.232l0.548 2.206 0.552-2.206a36.1 36.1 0 0 1 26.234-26.232l2.21-0.552-2.21-0.556z" fill="#330D84" /><path d="M212.708 522.678a57.74 57.74 0 0 1-41.962-41.96l-0.884-3.526-0.878 3.526a57.754 57.754 0 0 1-41.964 41.96l-3.53 0.886 3.53 0.884a57.746 57.746 0 0 1 41.964 41.964l0.878 3.518 0.884-3.518a57.732 57.732 0 0 1 41.962-41.964l3.53-0.884-3.53-0.886zM426.744 835.57a57.748 57.748 0 0 1-41.964-41.96l-0.882-3.526-0.88 3.526a57.76 57.76 0 0 1-41.962 41.96l-3.53 0.884 3.53 0.884a57.756 57.756 0 0 1 41.962 41.968l0.88 3.52 0.882-3.52a57.748 57.748 0 0 1 41.964-41.968l3.532-0.884-3.532-0.884z" fill="#FFBE1B" /><path d="M867.186 367.108a43.424 43.424 0 0 1-31.586-31.578l-0.664-2.654-0.67 2.654a43.42 43.42 0 0 1-31.582 31.578l-2.648 0.666 2.648 0.662a43.42 43.42 0 0 1 31.582 31.586l0.67 2.646 0.664-2.646a43.42 43.42 0 0 1 31.586-31.586l2.646-0.662-2.646-0.666zM765.284 252.92a75.65 75.65 0 0 1-54.992-54.984l-1.15-4.616-1.17 4.616a75.624 75.624 0 0 1-54.974 54.984l-4.612 1.162 4.612 1.158a75.584 75.584 0 0 1 54.974 54.98l1.17 4.616 1.15-4.616a75.616 75.616 0 0 1 54.992-54.98l4.62-1.158-4.62-1.162z" fill="#5D8EF9" /><path d="M722.706 346.46H283.764c-27.784 0-50.312 22.524-50.312 50.296v315.576c0 27.786 22.526 50.308 50.312 50.308h438.942c27.782 0 50.3-22.522 50.3-50.308V396.756c0-27.772-22.518-50.296-50.3-50.296z" fill="#330D84" /><path d="M592.074 389.718m-15 0a15 15 0 1 0 30 0 15 15 0 1 0-30 0Z" fill="#FFFFFF" /><path d="M652.962 374.718a15 15 0 0 0-15.002 15 15 15 0 1 0 15.002-15z" fill="#FFFFFF" /><path d="M713.846 389.718m-15 0a15 15 0 1 0 30 0 15 15 0 1 0-30 0Z" fill="#FFFFFF" /><path d="M233.452 435.754v276.58c0 27.786 22.526 50.308 50.312 50.308h438.942c27.782 0 50.3-22.522 50.3-50.308v-276.58H233.452z" fill="#6857E5" /><path d="M352.012 526.016c-48.538 0-87.884 39.348-87.884 87.888 0 48.534 39.348 87.88 87.884 87.88 48.54 0 87.896-39.348 87.896-87.88 0-48.542-39.356-87.888-87.896-87.888z" fill="#FFBE1B" /><path d="M352.012 547.928c-36.43 0-65.976 29.53-65.976 65.974 0 36.43 29.546 65.968 65.976 65.968 36.438 0 65.974-29.536 65.974-65.968 0.002-36.444-29.534-65.974-65.974-65.974z" fill="#FFE37B" /><path d="M378.618 618.016c-2.35-2.712-5.51-4.502-9.478-5.354 1.094-0.488 1.858-0.838 2.29-1.05 0.426-0.214 1.192-0.746 2.286-1.616 3.238-2.436 4.852-6.162 4.852-11.166 0-4.152-1.428-7.868-4.3-11.166-1.586-1.774-3.948-3.176-7.098-4.22a29.45 29.45 0 0 0-2.99-0.778v-8.142h-11.236v7.372h-7.526v-7.372h-11.234v7.372h-12.29v12.072h9.148v39.842h-9.148v12.096h12.29v7.358h11.234v-7.358h7.526v7.358h11.236v-7.64c6.104-0.662 10.58-2.536 13.386-5.682 3.05-3.412 4.576-7.342 4.576-11.806-0.002-4.034-1.178-7.394-3.524-10.12z m-33.286-24.046h6.858c4.22 0 7.208 0.472 8.98 1.378 1.77 0.922 2.654 2.802 2.654 5.636 0 2.842-0.956 4.692-2.882 5.538-1.926 0.854-4.868 1.288-8.838 1.288h-6.772v-13.84z m18.996 38.328c-2.04 1.012-5.11 1.516-9.204 1.516h-9.792v-14.738h8.42c4.764 0 8.226 0.464 10.392 1.416 2.17 0.944 3.248 2.894 3.248 5.856 0.002 2.956-1.018 4.944-3.064 5.95z" fill="#FFFFFF" /><path d="M672.806 536.8v166.21l41.826 3.9V536.8zM605.246 579.696h41.828v123.314h-41.828zM537.688 618.694h41.826v84.316h-41.826zM470.126 657.69h41.828v45.32h-41.828z" fill="#8AC9F9" /><path d="M703.18 463.71c-1.9-2.082-4.676-3.29-7.408-3.26l-43.844 0.092a10 10 0 0 0 0.02 20h0.02l18.954-0.04-100.584 69.636-15.352-14.656a10.002 10.002 0 0 0-12.466-1.078l-81.718 54.672a10 10 0 1 0 11.122 16.622l75.052-50.214 15.446 14.746a10 10 0 0 0 12.598 0.988l108.304-74.982-1.37 14.578a10 10 0 1 0 19.912 1.87l3.88-41.304a9.98 9.98 0 0 0-2.566-7.67z" fill="#FFFFFF" /></svg>